<svg xmlns="http://www.w3.org/2000/svg" width="1600" height="1000" viewBox="0 0 1600 1000" role="img" aria-labelledby="title desc"><title id="title">My Space Create workspace</title><desc id="desc">Infinite canvas for visual thinking with colorful notes and connectors.</desc>
<defs><radialGradient id="bg"><stop stop-color="#183225"/><stop offset=".55" stop-color="#111"/></radialGradient><pattern id="dots" width="28" height="28" patternUnits="userSpaceOnUse"><circle cx="2" cy="2" r="1.5" fill="#444"/></pattern><filter id="s"><feDropShadow dy="12" stdDeviation="16" flood-opacity=".4"/></filter></defs><rect width="1600" height="1000" fill="url(#bg)"/><rect x="30" y="30" width="72" height="940" rx="22" fill="#1a1a1a" stroke="#343434"/><circle cx="66" cy="76" r="17" fill="none" stroke="#9be6b7" stroke-width="3"/><g fill="#8c8c8c"><rect x="49" y="158" width="34" height="34" rx="9"/><rect x="43" y="203" width="46" height="60" rx="13" fill="#233d2d"/><rect x="49" y="274" width="34" height="34" rx="9"/><rect x="49" y="332" width="34" height="34" rx="9"/></g>
<rect x="126" y="30" width="1444" height="940" rx="22" fill="#f8f8f6" stroke="#343434" filter="url(#s)"/><rect x="126" y="30" width="270" height="940" rx="22" fill="#191919"/><path d="M396 30v940" stroke="#333"/><g font-family="Arial,sans-serif"><text x="158" y="88" fill="#fff" font-size="25" font-weight="700">Boards</text><text x="350" y="87" fill="#9be6b7" font-size="26">+</text><rect x="140" y="120" width="242" height="70" rx="13" fill="#242424"/><rect x="140" y="134" width="4" height="42" rx="2" fill="#99e5b7"/><text x="162" y="149" fill="#fff" font-size="16" font-weight="700">Launch map</text><text x="162" y="173" fill="#777" font-size="13">Edited just now</text><text x="162" y="230" fill="#bbb" font-size="16" font-weight="600">Ideas board</text><text x="162" y="253" fill="#777" font-size="13">Edited yesterday</text><text x="160" y="920" fill="#aaa" font-size="14">Import board</text>
<rect x="396" y="30" width="1174" height="62" rx="0" fill="#181818"/><text x="430" y="68" fill="#aaa" font-size="18">☰</text><text x="470" y="68" fill="#fff" font-size="17" font-weight="700">Launch map</text><text x="1360" y="68" fill="#65c88d" font-size="14">✓ Saved</text><rect x="396" y="92" width="1174" height="878" fill="url(#dots)"/>
<path d="M720 370 C800 370 795 300 875 300M720 400 C815 400 815 540 905 540M1085 320 C1160 320 1160 420 1230 420" fill="none" stroke="#6d7b75" stroke-width="4"/><path d="m868 292 14 8-14 8M898 532l14 8-14 8M1222 412l14 8-14 8" fill="none" stroke="#6d7b75" stroke-width="4"/>
<rect x="500" y="285" width="225" height="150" rx="15" fill="#202020" filter="url(#s)"/><text x="530" y="330" fill="#99e5b7" font-size="15" font-weight="700">PRODUCT LAUNCH</text><text x="530" y="372" fill="#fff" font-size="25" font-weight="700">Make calm tools</text><text x="530" y="405" fill="#aaa" font-size="16">for focused people.</text><rect x="875" y="230" width="230" height="135" rx="8" fill="#fff1a8" transform="rotate(-2 990 297)" filter="url(#s)"/><text x="907" y="277" fill="#564e23" font-size="18" font-weight="700">Tell the story</text><text x="907" y="311" fill="#746a32" font-size="15">Private by design</text><text x="907" y="336" fill="#746a32" font-size="15">Beautiful by default</text><rect x="910" y="480" width="245" height="145" rx="8" fill="#c9e8ff" transform="rotate(2 1032 552)" filter="url(#s)"/><text x="940" y="528" fill="#264c63" font-size="18" font-weight="700">Launch checklist</text><text x="940" y="565" fill="#3e657d" font-size="15">✓ Capture screenshots</text><text x="940" y="592" fill="#3e657d" font-size="15">○ Share with friends</text><rect x="1230" y="365" width="220" height="125" rx="14" fill="#d6c8ff" filter="url(#s)"/><text x="1260" y="412" fill="#473b70" font-size="18" font-weight="700">Ship gently</text><text x="1260" y="447" fill="#625684" font-size="15">Listen. Learn. Iterate.</text>
<rect x="720" y="885" width="500" height="58" rx="16" fill="#fff" stroke="#ddd" filter="url(#s)"/><g fill="#3b3b3b"><circle cx="760" cy="914" r="12"/><rect x="805" y="902" width="24" height="24" rx="4"/><circle cx="875" cy="914" r="12" fill="none" stroke="#444" stroke-width="3"/><path d="M920 902h24v24h-24zM977 902l24 24m0-24-24 24" stroke="#444" stroke-width="3"/><text x="1050" y="921" font-size="18">T</text><path d="m1110 924 12-24 12 24" stroke="#444" stroke-width="3" fill="none"/></g></g></svg>
